<?xml version="1.0" encoding="UTF-8" standalone="no"?>
<svg width="446px" height="96px" viewBox="0 0 446 96" version="1.1" xmlns="http://www.w3.org/2000/svg" xmlns:xlink="http://www.w3.org/1999/xlink" xmlns:sketch="http://www.bohemiancoding.com/sketch/ns">
    <!-- Generator: Sketch 3.4.2 (15855) - http://www.bohemiancoding.com/sketch -->
    <title>frisbee-logo</title>
    <desc>Created with Sketch.</desc>
    <defs></defs>
    <g id="Page-1" stroke="none" stroke-width="1" fill="none" fill-rule="evenodd" sketch:type="MSPage">
        <g id="frisbee-logo" sketch:type="MSLayerGroup" transform="translate(-2.000000, -1.000000)" fill="#7286FF">
            <path d="M447.2,63.3761905 C447.219048,62.9904762 447.233333,62.6 447.233333,62.2142857 C447.233333,46.7238095 434.67619,34.1714286 419.195238,34.1714286 L199.428571,34.1714286 C183.942857,34.1714286 171.390476,46.7238095 171.390476,62.2142857 C171.390476,62.6 171.404762,62.9904762 171.419048,63.3761905 L447.2,63.3761905 L447.2,63.3761905 Z" id="Shape" sketch:type="MSShapeGroup"></path>
            <path d="M230.290476,12.9904762 L59.5761905,12.9904762 C56.4,12.9904762 53.8238095,10.4142857 53.8238095,7.23809524 C53.8238095,4.06190476 56.4,1.48571429 59.5761905,1.48571429 L230.290476,1.48571429 C233.471429,1.48571429 236.042857,4.06190476 236.042857,7.23809524 C236.042857,10.4142857 233.471429,12.9904762 230.290476,12.9904762 L230.290476,12.9904762 Z" id="Shape" sketch:type="MSShapeGroup"></path>
            <path d="M179.02381,96.0571429 L8.30952381,96.0571429 C5.13333333,96.0571429 2.55714286,93.4809524 2.55714286,90.3047619 C2.55714286,87.1285714 5.13333333,84.552381 8.30952381,84.552381 L179.02381,84.552381 C182.2,84.552381 184.77619,87.1285714 184.77619,90.3047619 C184.77619,93.4857143 182.2,96.0571429 179.02381,96.0571429 L179.02381,96.0571429 Z" id="Shape" sketch:type="MSShapeGroup"></path>
            <path d="M152.809524,54.5238095 L93.6666667,54.5238095 C90.4904762,54.5238095 87.9190476,51.947619 87.9190476,48.7714286 C87.9190476,45.5952381 90.4904762,43.0190476 93.6666667,43.0190476 L152.809524,43.0190476 C155.985714,43.0190476 158.561905,45.5952381 158.561905,48.7714286 C158.561905,51.947619 155.985714,54.5238095 152.809524,54.5238095 L152.809524,54.5238095 Z" id="Shape" sketch:type="MSShapeGroup"></path>
        </g>
    </g>
</svg>